# xmcd CD database file
#
# Track frame offsets:
#	150
#	19415
#	37059
#	54713
#	67091
#	82444
#
# Disc length: 1382 seconds
#
# Revision: 1
# Processed by: cddbd v1.5.1PL0 Copyright (c) Steve Scherf et al.
# Submitted via: CDex 1.51
#
DISCID=5c056406
DTITLE=Dan Colehour - Dan Colehour
DYEAR=2005
DGENRE=Country
TTITLE0=The Likes of Us
TTITLE1=I Love This Town
TTITLE2=As It Ever Was
TTITLE3=The Last of Me
TTITLE4=It Ain't That Easy
TTITLE5=Your Secret's Safe With Me
EXTD=YEAR: 2005
EXTT0=
EXTT1=
EXTT2=
EXTT3=
EXTT4=
EXTT5=
PLAYORDER=
